<svg xmlns="http://www.w3.org/2000/svg" xmlns:xlink="http://www.w3.org/1999/xlink" width="512" zoomAndPan="magnify" viewBox="0 0 384 383.999986" height="512" preserveAspectRatio="xMidYMid meet" version="1.0"><defs><g/><clipPath id="eaa00ae1e5"><path d="M 8.234375 8.234375 L 375.734375 8.234375 L 375.734375 375.734375 L 8.234375 375.734375 Z M 8.234375 8.234375 " clip-rule="nonzero"/></clipPath></defs><g clip-path="url(#eaa00ae1e5)"><path fill="#ff609a" d="M 157.363281 8.234375 L 226.628906 8.234375 C 257.089844 8.234375 281.644531 8.234375 300.957031 10.832031 C 321.003906 13.527344 337.886719 19.292969 351.292969 32.699219 C 364.699219 46.105469 370.46875 62.988281 373.164062 83.035156 C 375.761719 102.347656 375.757812 126.902344 375.757812 157.363281 L 375.757812 226.628906 C 375.757812 257.089844 375.761719 281.644531 373.164062 300.957031 C 370.46875 321.003906 364.699219 337.886719 351.292969 351.292969 C 337.886719 364.699219 321.003906 370.46875 300.957031 373.164062 C 281.644531 375.761719 257.089844 375.757812 226.628906 375.757812 L 157.363281 375.757812 C 126.902344 375.757812 102.347656 375.761719 83.035156 373.164062 C 62.988281 370.46875 46.105469 364.699219 32.699219 351.292969 C 19.292969 337.886719 13.527344 321.003906 10.832031 300.957031 C 8.234375 281.644531 8.234375 257.089844 8.234375 226.628906 L 8.234375 157.363281 C 8.234375 126.902344 8.234375 102.347656 10.832031 83.035156 C 13.527344 62.988281 19.292969 46.105469 32.699219 32.699219 C 46.105469 19.292969 62.988281 13.527344 83.035156 10.832031 C 102.347656 8.234375 126.902344 8.234375 157.363281 8.234375 Z M 78.398438 165.265625 C 83.933594 157.886719 94.40625 156.390625 101.785156 161.925781 L 168.609375 212.042969 C 172.816406 215.199219 175.289062 220.148438 175.289062 225.40625 C 175.289062 230.667969 172.816406 235.617188 168.609375 238.773438 L 101.785156 288.890625 C 94.40625 294.425781 83.933594 292.929688 78.398438 285.546875 C 72.863281 278.167969 74.359375 267.695312 81.738281 262.160156 L 130.742188 225.40625 L 81.738281 188.65625 C 74.359375 183.117188 72.863281 172.648438 78.398438 165.265625 Z M 191.996094 275.523438 C 191.996094 266.296875 199.476562 258.820312 208.703125 258.820312 L 308.9375 258.820312 C 318.164062 258.820312 325.640625 266.296875 325.640625 275.523438 C 325.640625 284.75 318.164062 292.230469 308.9375 292.230469 L 208.703125 292.230469 C 199.476562 292.230469 191.996094 284.75 191.996094 275.523438 Z M 191.996094 275.523438 " fill-opacity="1" fill-rule="evenodd"/></g><g fill="#ff609a" fill-opacity="1"><g transform="translate(92.001562, 94.935088)"><g><path d="M 8 -20.359375 L 0.125 -20.359375 L 0.125 -22.40625 L 18.234375 -22.40625 L 18.234375 -20.359375 L 10.375 -20.359375 L 10.375 0 L 8 0 Z M 8 -20.359375 "/></g></g></g><g fill="#ff609a" fill-opacity="1"><g transform="translate(108.605324, 94.935088)"><g><path d="M 17.828125 -7.71875 L 3.75 -7.71875 C 3.875 -5.96875 4.539062 -4.550781 5.75 -3.46875 C 6.96875 -2.394531 8.507812 -1.859375 10.375 -1.859375 C 11.414062 -1.859375 12.375 -2.039062 13.25 -2.40625 C 14.125 -2.78125 14.878906 -3.332031 15.515625 -4.0625 L 16.796875 -2.59375 C 16.054688 -1.695312 15.125 -1.015625 14 -0.546875 C 12.875 -0.078125 11.640625 0.15625 10.296875 0.15625 C 8.578125 0.15625 7.050781 -0.207031 5.71875 -0.9375 C 4.382812 -1.675781 3.34375 -2.695312 2.59375 -4 C 1.84375 -5.300781 1.46875 -6.773438 1.46875 -8.421875 C 1.46875 -10.054688 1.820312 -11.523438 2.53125 -12.828125 C 3.25 -14.128906 4.234375 -15.140625 5.484375 -15.859375 C 6.734375 -16.585938 8.140625 -16.953125 9.703125 -16.953125 C 11.253906 -16.953125 12.648438 -16.585938 13.890625 -15.859375 C 15.128906 -15.140625 16.097656 -14.132812 16.796875 -12.84375 C 17.503906 -11.550781 17.859375 -10.078125 17.859375 -8.421875 Z M 9.703125 -15.015625 C 8.078125 -15.015625 6.710938 -14.492188 5.609375 -13.453125 C 4.515625 -12.421875 3.894531 -11.070312 3.75 -9.40625 L 15.6875 -9.40625 C 15.53125 -11.070312 14.898438 -12.421875 13.796875 -13.453125 C 12.703125 -14.492188 11.335938 -15.015625 9.703125 -15.015625 Z M 9.703125 -15.015625 "/></g></g></g><g fill="#ff609a" fill-opacity="1"><g transform="translate(127.448649, 94.935088)"><g><path d="M 13.890625 0 L 8.546875 -7.046875 L 3.171875 0 L 0.609375 0 L 7.265625 -8.640625 L 0.921875 -16.828125 L 3.484375 -16.828125 L 8.546875 -10.234375 L 13.59375 -16.828125 L 16.09375 -16.828125 L 9.765625 -8.640625 L 16.484375 0 Z M 13.890625 0 "/></g></g></g><g fill="#ff609a" fill-opacity="1"><g transform="translate(144.532446, 94.935088)"><g><path d="M 12.03125 -1.03125 C 11.601562 -0.644531 11.070312 -0.347656 10.4375 -0.140625 C 9.8125 0.0546875 9.160156 0.15625 8.484375 0.15625 C 6.898438 0.15625 5.679688 -0.269531 4.828125 -1.125 C 3.972656 -1.976562 3.546875 -3.179688 3.546875 -4.734375 L 3.546875 -14.90625 L 0.546875 -14.90625 L 0.546875 -16.828125 L 3.546875 -16.828125 L 3.546875 -20.515625 L 5.828125 -20.515625 L 5.828125 -16.828125 L 10.9375 -16.828125 L 10.9375 -14.90625 L 5.828125 -14.90625 L 5.828125 -4.859375 C 5.828125 -3.859375 6.078125 -3.097656 6.578125 -2.578125 C 7.078125 -2.054688 7.796875 -1.796875 8.734375 -1.796875 C 9.203125 -1.796875 9.65625 -1.867188 10.09375 -2.015625 C 10.53125 -2.160156 10.910156 -2.375 11.234375 -2.65625 Z M 12.03125 -1.03125 "/></g></g></g><g fill="#ff609a" fill-opacity="1"><g transform="translate(156.913338, 94.935088)"><g><path d="M 10.046875 0.15625 C 8.421875 0.15625 6.957031 -0.207031 5.65625 -0.9375 C 4.363281 -1.675781 3.34375 -2.695312 2.59375 -4 C 1.84375 -5.300781 1.46875 -6.773438 1.46875 -8.421875 C 1.46875 -10.054688 1.84375 -11.523438 2.59375 -12.828125 C 3.34375 -14.128906 4.363281 -15.140625 5.65625 -15.859375 C 6.957031 -16.585938 8.421875 -16.953125 10.046875 -16.953125 C 11.671875 -16.953125 13.132812 -16.585938 14.4375 -15.859375 C 15.738281 -15.140625 16.753906 -14.128906 17.484375 -12.828125 C 18.222656 -11.523438 18.59375 -10.054688 18.59375 -8.421875 C 18.59375 -6.773438 18.222656 -5.300781 17.484375 -4 C 16.753906 -2.695312 15.738281 -1.675781 14.4375 -0.9375 C 13.132812 -0.207031 11.671875 0.15625 10.046875 0.15625 Z M 10.046875 -1.859375 C 11.242188 -1.859375 12.316406 -2.128906 13.265625 -2.671875 C 14.210938 -3.210938 14.953125 -3.984375 15.484375 -4.984375 C 16.015625 -5.992188 16.28125 -7.140625 16.28125 -8.421875 C 16.28125 -9.703125 16.015625 -10.84375 15.484375 -11.84375 C 14.953125 -12.84375 14.210938 -13.613281 13.265625 -14.15625 C 12.316406 -14.695312 11.242188 -14.96875 10.046875 -14.96875 C 8.847656 -14.96875 7.773438 -14.695312 6.828125 -14.15625 C 5.878906 -13.613281 5.132812 -12.84375 4.59375 -11.84375 C 4.050781 -10.84375 3.78125 -9.703125 3.78125 -8.421875 C 3.78125 -7.140625 4.050781 -5.992188 4.59375 -4.984375 C 5.132812 -3.984375 5.878906 -3.210938 6.828125 -2.671875 C 7.773438 -2.128906 8.847656 -1.859375 10.046875 -1.859375 Z M 10.046875 -1.859375 "/></g></g></g><g fill="#ff609a" fill-opacity="1"><g transform="translate(176.972403, 94.935088)"><g/></g></g><g fill="#ff609a" fill-opacity="1"><g transform="translate(185.354341, 94.935088)"><g><path d="M 18.53125 -23.75 L 18.53125 0 L 16.359375 0 L 16.359375 -3.328125 C 15.671875 -2.191406 14.765625 -1.328125 13.640625 -0.734375 C 12.523438 -0.140625 11.265625 0.15625 9.859375 0.15625 C 8.273438 0.15625 6.84375 -0.203125 5.5625 -0.921875 C 4.28125 -1.648438 3.273438 -2.664062 2.546875 -3.96875 C 1.828125 -5.269531 1.46875 -6.753906 1.46875 -8.421875 C 1.46875 -10.078125 1.828125 -11.554688 2.546875 -12.859375 C 3.273438 -14.160156 4.28125 -15.164062 5.5625 -15.875 C 6.84375 -16.59375 8.273438 -16.953125 9.859375 -16.953125 C 11.222656 -16.953125 12.453125 -16.671875 13.546875 -16.109375 C 14.648438 -15.546875 15.550781 -14.71875 16.25 -13.625 L 16.25 -23.75 Z M 10.046875 -1.859375 C 11.222656 -1.859375 12.285156 -2.128906 13.234375 -2.671875 C 14.179688 -3.210938 14.925781 -3.984375 15.46875 -4.984375 C 16.007812 -5.992188 16.28125 -7.140625 16.28125 -8.421875 C 16.28125 -9.703125 16.007812 -10.84375 15.46875 -11.84375 C 14.925781 -12.84375 14.179688 -13.613281 13.234375 -14.15625 C 12.285156 -14.695312 11.222656 -14.96875 10.046875 -14.96875 C 8.847656 -14.96875 7.773438 -14.695312 6.828125 -14.15625 C 5.878906 -13.613281 5.132812 -12.84375 4.59375 -11.84375 C 4.050781 -10.84375 3.78125 -9.703125 3.78125 -8.421875 C 3.78125 -7.140625 4.050781 -5.992188 4.59375 -4.984375 C 5.132812 -3.984375 5.878906 -3.210938 6.828125 -2.671875 C 7.773438 -2.128906 8.847656 -1.859375 10.046875 -1.859375 Z M 10.046875 -1.859375 "/></g></g></g><g fill="#ff609a" fill-opacity="1"><g transform="translate(207.045013, 94.935088)"><g><path d="M 10.046875 0.15625 C 8.421875 0.15625 6.957031 -0.207031 5.65625 -0.9375 C 4.363281 -1.675781 3.34375 -2.695312 2.59375 -4 C 1.84375 -5.300781 1.46875 -6.773438 1.46875 -8.421875 C 1.46875 -10.054688 1.84375 -11.523438 2.59375 -12.828125 C 3.34375 -14.128906 4.363281 -15.140625 5.65625 -15.859375 C 6.957031 -16.585938 8.421875 -16.953125 10.046875 -16.953125 C 11.671875 -16.953125 13.132812 -16.585938 14.4375 -15.859375 C 15.738281 -15.140625 16.753906 -14.128906 17.484375 -12.828125 C 18.222656 -11.523438 18.59375 -10.054688 18.59375 -8.421875 C 18.59375 -6.773438 18.222656 -5.300781 17.484375 -4 C 16.753906 -2.695312 15.738281 -1.675781 14.4375 -0.9375 C 13.132812 -0.207031 11.671875 0.15625 10.046875 0.15625 Z M 10.046875 -1.859375 C 11.242188 -1.859375 12.316406 -2.128906 13.265625 -2.671875 C 14.210938 -3.210938 14.953125 -3.984375 15.484375 -4.984375 C 16.015625 -5.992188 16.28125 -7.140625 16.28125 -8.421875 C 16.28125 -9.703125 16.015625 -10.84375 15.484375 -11.84375 C 14.953125 -12.84375 14.210938 -13.613281 13.265625 -14.15625 C 12.316406 -14.695312 11.242188 -14.96875 10.046875 -14.96875 C 8.847656 -14.96875 7.773438 -14.695312 6.828125 -14.15625 C 5.878906 -13.613281 5.132812 -12.84375 4.59375 -11.84375 C 4.050781 -10.84375 3.78125 -9.703125 3.78125 -8.421875 C 3.78125 -7.140625 4.050781 -5.992188 4.59375 -4.984375 C 5.132812 -3.984375 5.878906 -3.210938 6.828125 -2.671875 C 7.773438 -2.128906 8.847656 -1.859375 10.046875 -1.859375 Z M 10.046875 -1.859375 "/></g></g></g><g fill="#ff609a" fill-opacity="1"><g transform="translate(227.104078, 94.935088)"><g/></g></g><g fill="#ff609a" fill-opacity="1"><g transform="translate(235.486016, 94.935088)"><g><path d="M 7.6875 0.15625 C 6.3125 0.15625 5 -0.0390625 3.75 -0.4375 C 2.507812 -0.832031 1.535156 -1.328125 0.828125 -1.921875 L 1.859375 -3.71875 C 2.554688 -3.15625 3.4375 -2.695312 4.5 -2.34375 C 5.570312 -2 6.6875 -1.828125 7.84375 -1.828125 C 9.375 -1.828125 10.507812 -2.066406 11.25 -2.546875 C 11.988281 -3.023438 12.359375 -3.703125 12.359375 -4.578125 C 12.359375 -5.191406 12.15625 -5.675781 11.75 -6.03125 C 11.34375 -6.382812 10.828125 -6.648438 10.203125 -6.828125 C 9.585938 -7.015625 8.769531 -7.191406 7.75 -7.359375 C 6.382812 -7.617188 5.285156 -7.878906 4.453125 -8.140625 C 3.617188 -8.410156 2.90625 -8.863281 2.3125 -9.5 C 1.726562 -10.144531 1.4375 -11.03125 1.4375 -12.15625 C 1.4375 -13.5625 2.019531 -14.710938 3.1875 -15.609375 C 4.363281 -16.503906 6 -16.953125 8.09375 -16.953125 C 9.1875 -16.953125 10.273438 -16.804688 11.359375 -16.515625 C 12.441406 -16.234375 13.335938 -15.859375 14.046875 -15.390625 L 13.0625 -13.5625 C 11.664062 -14.53125 10.007812 -15.015625 8.09375 -15.015625 C 6.644531 -15.015625 5.550781 -14.753906 4.8125 -14.234375 C 4.082031 -13.722656 3.71875 -13.050781 3.71875 -12.21875 C 3.71875 -11.582031 3.921875 -11.070312 4.328125 -10.6875 C 4.742188 -10.300781 5.257812 -10.015625 5.875 -9.828125 C 6.5 -9.648438 7.359375 -9.46875 8.453125 -9.28125 C 9.796875 -9.019531 10.867188 -8.757812 11.671875 -8.5 C 12.484375 -8.25 13.175781 -7.8125 13.75 -7.1875 C 14.332031 -6.570312 14.625 -5.722656 14.625 -4.640625 C 14.625 -3.171875 14.007812 -2.003906 12.78125 -1.140625 C 11.550781 -0.273438 9.851562 0.15625 7.6875 0.15625 Z M 7.6875 0.15625 "/></g></g></g><g fill="#ff609a" fill-opacity="1"><g transform="translate(251.130168, 94.935088)"><g><path d="M 17.828125 -7.71875 L 3.75 -7.71875 C 3.875 -5.96875 4.539062 -4.550781 5.75 -3.46875 C 6.96875 -2.394531 8.507812 -1.859375 10.375 -1.859375 C 11.414062 -1.859375 12.375 -2.039062 13.25 -2.40625 C 14.125 -2.78125 14.878906 -3.332031 15.515625 -4.0625 L 16.796875 -2.59375 C 16.054688 -1.695312 15.125 -1.015625 14 -0.546875 C 12.875 -0.078125 11.640625 0.15625 10.296875 0.15625 C 8.578125 0.15625 7.050781 -0.207031 5.71875 -0.9375 C 4.382812 -1.675781 3.34375 -2.695312 2.59375 -4 C 1.84375 -5.300781 1.46875 -6.773438 1.46875 -8.421875 C 1.46875 -10.054688 1.820312 -11.523438 2.53125 -12.828125 C 3.25 -14.128906 4.234375 -15.140625 5.484375 -15.859375 C 6.734375 -16.585938 8.140625 -16.953125 9.703125 -16.953125 C 11.253906 -16.953125 12.648438 -16.585938 13.890625 -15.859375 C 15.128906 -15.140625 16.097656 -14.132812 16.796875 -12.84375 C 17.503906 -11.550781 17.859375 -10.078125 17.859375 -8.421875 Z M 9.703125 -15.015625 C 8.078125 -15.015625 6.710938 -14.492188 5.609375 -13.453125 C 4.515625 -12.421875 3.894531 -11.070312 3.75 -9.40625 L 15.6875 -9.40625 C 15.53125 -11.070312 14.898438 -12.421875 13.796875 -13.453125 C 12.703125 -14.492188 11.335938 -15.015625 9.703125 -15.015625 Z M 9.703125 -15.015625 "/></g></g></g><g fill="#ff609a" fill-opacity="1"><g transform="translate(270.453413, 94.935088)"><g><path d="M 18.34375 -16.828125 L 18.34375 0 L 16.15625 0 L 16.15625 -3.078125 C 15.5625 -2.046875 14.738281 -1.25 13.6875 -0.6875 C 12.644531 -0.125 11.453125 0.15625 10.109375 0.15625 C 7.910156 0.15625 6.175781 -0.453125 4.90625 -1.671875 C 3.644531 -2.898438 3.015625 -4.703125 3.015625 -7.078125 L 3.015625 -16.828125 L 5.28125 -16.828125 L 5.28125 -7.296875 C 5.28125 -5.523438 5.71875 -4.179688 6.59375 -3.265625 C 7.46875 -2.347656 8.71875 -1.890625 10.34375 -1.890625 C 12.101562 -1.890625 13.492188 -2.425781 14.515625 -3.5 C 15.546875 -4.582031 16.0625 -6.082031 16.0625 -8 L 16.0625 -16.828125 Z M 18.34375 -16.828125 "/></g></g></g><g fill="#ff609a" fill-opacity="1"><g transform="translate(114.032811, 139.185085)"><g><path d="M 11.84375 -16.953125 C 13.414062 -16.953125 14.84375 -16.59375 16.125 -15.875 C 17.40625 -15.164062 18.40625 -14.160156 19.125 -12.859375 C 19.851562 -11.554688 20.21875 -10.078125 20.21875 -8.421875 C 20.21875 -6.734375 19.851562 -5.238281 19.125 -3.9375 C 18.40625 -2.632812 17.410156 -1.625 16.140625 -0.90625 C 14.867188 -0.195312 13.4375 0.15625 11.84375 0.15625 C 10.476562 0.15625 9.242188 -0.125 8.140625 -0.6875 C 7.046875 -1.25 6.144531 -2.078125 5.4375 -3.171875 L 5.4375 6.203125 L 3.171875 6.203125 L 3.171875 -16.828125 L 5.34375 -16.828125 L 5.34375 -13.5 C 6.03125 -14.613281 6.929688 -15.46875 8.046875 -16.0625 C 9.171875 -16.65625 10.4375 -16.953125 11.84375 -16.953125 Z M 11.6875 -1.859375 C 12.851562 -1.859375 13.914062 -2.128906 14.875 -2.671875 C 15.832031 -3.210938 16.582031 -3.984375 17.125 -4.984375 C 17.675781 -5.992188 17.953125 -7.140625 17.953125 -8.421875 C 17.953125 -9.703125 17.675781 -10.835938 17.125 -11.828125 C 16.582031 -12.816406 15.832031 -13.585938 14.875 -14.140625 C 13.914062 -14.691406 12.851562 -14.96875 11.6875 -14.96875 C 10.488281 -14.96875 9.414062 -14.691406 8.46875 -14.140625 C 7.519531 -13.585938 6.769531 -12.816406 6.21875 -11.828125 C 5.675781 -10.835938 5.40625 -9.703125 5.40625 -8.421875 C 5.40625 -7.140625 5.675781 -5.992188 6.21875 -4.984375 C 6.769531 -3.984375 7.519531 -3.210938 8.46875 -2.671875 C 9.414062 -2.128906 10.488281 -1.859375 11.6875 -1.859375 Z M 11.6875 -1.859375 "/></g></g></g><g fill="#ff609a" fill-opacity="1"><g transform="translate(135.627501, 139.185085)"><g><path d="M 9.0625 -16.953125 C 11.257812 -16.953125 12.941406 -16.398438 14.109375 -15.296875 C 15.285156 -14.203125 15.875 -12.582031 15.875 -10.4375 L 15.875 0 L 13.703125 0 L 13.703125 -2.625 C 13.179688 -1.75 12.425781 -1.066406 11.4375 -0.578125 C 10.445312 -0.0859375 9.269531 0.15625 7.90625 0.15625 C 6.03125 0.15625 4.535156 -0.289062 3.421875 -1.1875 C 2.316406 -2.082031 1.765625 -3.265625 1.765625 -4.734375 C 1.765625 -6.160156 2.28125 -7.3125 3.3125 -8.1875 C 4.34375 -9.0625 5.988281 -9.5 8.25 -9.5 L 13.59375 -9.5 L 13.59375 -10.53125 C 13.59375 -11.976562 13.1875 -13.078125 12.375 -13.828125 C 11.570312 -14.585938 10.390625 -14.96875 8.828125 -14.96875 C 7.765625 -14.96875 6.738281 -14.789062 5.75 -14.4375 C 4.769531 -14.09375 3.929688 -13.609375 3.234375 -12.984375 L 2.203125 -14.6875 C 3.054688 -15.414062 4.082031 -15.972656 5.28125 -16.359375 C 6.476562 -16.753906 7.738281 -16.953125 9.0625 -16.953125 Z M 8.25 -1.625 C 9.53125 -1.625 10.628906 -1.914062 11.546875 -2.5 C 12.460938 -3.09375 13.144531 -3.945312 13.59375 -5.0625 L 13.59375 -7.8125 L 8.3125 -7.8125 C 5.4375 -7.8125 4 -6.804688 4 -4.796875 C 4 -3.816406 4.367188 -3.039062 5.109375 -2.46875 C 5.859375 -1.90625 6.90625 -1.625 8.25 -1.625 Z M 8.25 -1.625 "/></g></g></g><g fill="#ff609a" fill-opacity="1"><g transform="translate(154.502858, 139.185085)"><g><path d="M 5.34375 -13.53125 C 5.875 -14.664062 6.664062 -15.519531 7.71875 -16.09375 C 8.78125 -16.664062 10.085938 -16.953125 11.640625 -16.953125 L 11.640625 -14.75 L 11.109375 -14.78125 C 9.335938 -14.78125 7.945312 -14.234375 6.9375 -13.140625 C 5.9375 -12.054688 5.4375 -10.535156 5.4375 -8.578125 L 5.4375 0 L 3.171875 0 L 3.171875 -16.828125 L 5.34375 -16.828125 Z M 5.34375 -13.53125 "/></g></g></g><g fill="#ff609a" fill-opacity="1"><g transform="translate(167.043751, 139.185085)"><g><path d="M 9.0625 -16.953125 C 11.257812 -16.953125 12.941406 -16.398438 14.109375 -15.296875 C 15.285156 -14.203125 15.875 -12.582031 15.875 -10.4375 L 15.875 0 L 13.703125 0 L 13.703125 -2.625 C 13.179688 -1.75 12.425781 -1.066406 11.4375 -0.578125 C 10.445312 -0.0859375 9.269531 0.15625 7.90625 0.15625 C 6.03125 0.15625 4.535156 -0.289062 3.421875 -1.1875 C 2.316406 -2.082031 1.765625 -3.265625 1.765625 -4.734375 C 1.765625 -6.160156 2.28125 -7.3125 3.3125 -8.1875 C 4.34375 -9.0625 5.988281 -9.5 8.25 -9.5 L 13.59375 -9.5 L 13.59375 -10.53125 C 13.59375 -11.976562 13.1875 -13.078125 12.375 -13.828125 C 11.570312 -14.585938 10.390625 -14.96875 8.828125 -14.96875 C 7.765625 -14.96875 6.738281 -14.789062 5.75 -14.4375 C 4.769531 -14.09375 3.929688 -13.609375 3.234375 -12.984375 L 2.203125 -14.6875 C 3.054688 -15.414062 4.082031 -15.972656 5.28125 -16.359375 C 6.476562 -16.753906 7.738281 -16.953125 9.0625 -16.953125 Z M 8.25 -1.625 C 9.53125 -1.625 10.628906 -1.914062 11.546875 -2.5 C 12.460938 -3.09375 13.144531 -3.945312 13.59375 -5.0625 L 13.59375 -7.8125 L 8.3125 -7.8125 C 5.4375 -7.8125 4 -6.804688 4 -4.796875 C 4 -3.816406 4.367188 -3.039062 5.109375 -2.46875 C 5.859375 -1.90625 6.90625 -1.625 8.25 -1.625 Z M 11.421875 -23.421875 L 14.46875 -23.421875 L 9.28125 -19.453125 L 7.03125 -19.453125 Z M 11.421875 -23.421875 "/></g></g></g><g fill="#ff609a" fill-opacity="1"><g transform="translate(185.983104, 139.185085)"><g><path d="M 18.75 -16.828125 L 18.75 -2.046875 C 18.75 0.804688 18.050781 2.921875 16.65625 4.296875 C 15.257812 5.679688 13.15625 6.375 10.34375 6.375 C 8.78125 6.375 7.300781 6.140625 5.90625 5.671875 C 4.507812 5.210938 3.375 4.582031 2.5 3.78125 L 3.640625 2.046875 C 4.453125 2.773438 5.441406 3.34375 6.609375 3.75 C 7.773438 4.15625 8.992188 4.359375 10.265625 4.359375 C 12.398438 4.359375 13.96875 3.859375 14.96875 2.859375 C 15.976562 1.867188 16.484375 0.324219 16.484375 -1.765625 L 16.484375 -3.90625 C 15.773438 -2.832031 14.847656 -2.019531 13.703125 -1.46875 C 12.566406 -0.914062 11.304688 -0.640625 9.921875 -0.640625 C 8.335938 -0.640625 6.898438 -0.984375 5.609375 -1.671875 C 4.328125 -2.367188 3.316406 -3.34375 2.578125 -4.59375 C 1.835938 -5.84375 1.46875 -7.253906 1.46875 -8.828125 C 1.46875 -10.410156 1.835938 -11.816406 2.578125 -13.046875 C 3.316406 -14.285156 4.320312 -15.242188 5.59375 -15.921875 C 6.875 -16.609375 8.316406 -16.953125 9.921875 -16.953125 C 11.347656 -16.953125 12.632812 -16.664062 13.78125 -16.09375 C 14.9375 -15.519531 15.867188 -14.6875 16.578125 -13.59375 L 16.578125 -16.828125 Z M 10.140625 -2.65625 C 11.359375 -2.65625 12.457031 -2.914062 13.4375 -3.4375 C 14.414062 -3.957031 15.175781 -4.6875 15.71875 -5.625 C 16.269531 -6.570312 16.546875 -7.640625 16.546875 -8.828125 C 16.546875 -10.023438 16.269531 -11.085938 15.71875 -12.015625 C 15.175781 -12.941406 14.421875 -13.664062 13.453125 -14.1875 C 12.484375 -14.707031 11.378906 -14.96875 10.140625 -14.96875 C 8.921875 -14.96875 7.828125 -14.710938 6.859375 -14.203125 C 5.890625 -13.691406 5.132812 -12.96875 4.59375 -12.03125 C 4.050781 -11.09375 3.78125 -10.023438 3.78125 -8.828125 C 3.78125 -7.640625 4.050781 -6.570312 4.59375 -5.625 C 5.132812 -4.6875 5.890625 -3.957031 6.859375 -3.4375 C 7.828125 -2.914062 8.921875 -2.65625 10.140625 -2.65625 Z M 10.140625 -2.65625 "/></g></g></g><g fill="#ff609a" fill-opacity="1"><g transform="translate(207.929711, 139.185085)"><g><path d="M 5.34375 -13.53125 C 5.875 -14.664062 6.664062 -15.519531 7.71875 -16.09375 C 8.78125 -16.664062 10.085938 -16.953125 11.640625 -16.953125 L 11.640625 -14.75 L 11.109375 -14.78125 C 9.335938 -14.78125 7.945312 -14.234375 6.9375 -13.140625 C 5.9375 -12.054688 5.4375 -10.535156 5.4375 -8.578125 L 5.4375 0 L 3.171875 0 L 3.171875 -16.828125 L 5.34375 -16.828125 Z M 5.34375 -13.53125 "/></g></g></g><g fill="#ff609a" fill-opacity="1"><g transform="translate(220.470604, 139.185085)"><g><path d="M 9.0625 -16.953125 C 11.257812 -16.953125 12.941406 -16.398438 14.109375 -15.296875 C 15.285156 -14.203125 15.875 -12.582031 15.875 -10.4375 L 15.875 0 L 13.703125 0 L 13.703125 -2.625 C 13.179688 -1.75 12.425781 -1.066406 11.4375 -0.578125 C 10.445312 -0.0859375 9.269531 0.15625 7.90625 0.15625 C 6.03125 0.15625 4.535156 -0.289062 3.421875 -1.1875 C 2.316406 -2.082031 1.765625 -3.265625 1.765625 -4.734375 C 1.765625 -6.160156 2.28125 -7.3125 3.3125 -8.1875 C 4.34375 -9.0625 5.988281 -9.5 8.25 -9.5 L 13.59375 -9.5 L 13.59375 -10.53125 C 13.59375 -11.976562 13.1875 -13.078125 12.375 -13.828125 C 11.570312 -14.585938 10.390625 -14.96875 8.828125 -14.96875 C 7.765625 -14.96875 6.738281 -14.789062 5.75 -14.4375 C 4.769531 -14.09375 3.929688 -13.609375 3.234375 -12.984375 L 2.203125 -14.6875 C 3.054688 -15.414062 4.082031 -15.972656 5.28125 -16.359375 C 6.476562 -16.753906 7.738281 -16.953125 9.0625 -16.953125 Z M 8.25 -1.625 C 9.53125 -1.625 10.628906 -1.914062 11.546875 -2.5 C 12.460938 -3.09375 13.144531 -3.945312 13.59375 -5.0625 L 13.59375 -7.8125 L 8.3125 -7.8125 C 5.4375 -7.8125 4 -6.804688 4 -4.796875 C 4 -3.816406 4.367188 -3.039062 5.109375 -2.46875 C 5.859375 -1.90625 6.90625 -1.625 8.25 -1.625 Z M 8.25 -1.625 "/></g></g></g><g fill="#ff609a" fill-opacity="1"><g transform="translate(239.345961, 139.185085)"><g><path d="M 8.734375 -21.984375 C 7.753906 -21.984375 7.015625 -21.71875 6.515625 -21.1875 C 6.015625 -20.65625 5.765625 -19.863281 5.765625 -18.8125 L 5.765625 -16.828125 L 10.9375 -16.828125 L 10.9375 -14.90625 L 5.828125 -14.90625 L 5.828125 0 L 3.546875 0 L 3.546875 -14.90625 L 0.546875 -14.90625 L 0.546875 -16.828125 L 3.546875 -16.828125 L 3.546875 -18.90625 C 3.546875 -20.445312 3.988281 -21.664062 4.875 -22.5625 C 5.757812 -23.457031 7.015625 -23.90625 8.640625 -23.90625 C 9.273438 -23.90625 9.890625 -23.8125 10.484375 -23.625 C 11.085938 -23.445312 11.59375 -23.1875 12 -22.84375 L 11.234375 -21.15625 C 10.566406 -21.707031 9.734375 -21.984375 8.734375 -21.984375 Z M 8.734375 -21.984375 "/></g></g></g><g fill="#ff609a" fill-opacity="1"><g transform="translate(249.903341, 139.185085)"><g><path d="M 10.046875 0.15625 C 8.421875 0.15625 6.957031 -0.207031 5.65625 -0.9375 C 4.363281 -1.675781 3.34375 -2.695312 2.59375 -4 C 1.84375 -5.300781 1.46875 -6.773438 1.46875 -8.421875 C 1.46875 -10.054688 1.84375 -11.523438 2.59375 -12.828125 C 3.34375 -14.128906 4.363281 -15.140625 5.65625 -15.859375 C 6.957031 -16.585938 8.421875 -16.953125 10.046875 -16.953125 C 11.671875 -16.953125 13.132812 -16.585938 14.4375 -15.859375 C 15.738281 -15.140625 16.753906 -14.128906 17.484375 -12.828125 C 18.222656 -11.523438 18.59375 -10.054688 18.59375 -8.421875 C 18.59375 -6.773438 18.222656 -5.300781 17.484375 -4 C 16.753906 -2.695312 15.738281 -1.675781 14.4375 -0.9375 C 13.132812 -0.207031 11.671875 0.15625 10.046875 0.15625 Z M 10.046875 -1.859375 C 11.242188 -1.859375 12.316406 -2.128906 13.265625 -2.671875 C 14.210938 -3.210938 14.953125 -3.984375 15.484375 -4.984375 C 16.015625 -5.992188 16.28125 -7.140625 16.28125 -8.421875 C 16.28125 -9.703125 16.015625 -10.84375 15.484375 -11.84375 C 14.953125 -12.84375 14.210938 -13.613281 13.265625 -14.15625 C 12.316406 -14.695312 11.242188 -14.96875 10.046875 -14.96875 C 8.847656 -14.96875 7.773438 -14.695312 6.828125 -14.15625 C 5.878906 -13.613281 5.132812 -12.84375 4.59375 -11.84375 C 4.050781 -10.84375 3.78125 -9.703125 3.78125 -8.421875 C 3.78125 -7.140625 4.050781 -5.992188 4.59375 -4.984375 C 5.132812 -3.984375 5.878906 -3.210938 6.828125 -2.671875 C 7.773438 -2.128906 8.847656 -1.859375 10.046875 -1.859375 Z M 10.046875 -1.859375 "/></g></g></g></svg>